# xmcd CD database file
#
# Track frame offsets:
#	150
#	51437
#	109501
#	160101
#	211531
#
# Disc length: 3551 seconds
#
# Revision: 0
# Processed by: cddbd v1.4PL0 Copyright (c) Steve Scherf et al.
# Submitted via: CDex 1.50Beta7
#
DISCID=360ddd05
DTITLE=Robin Crow - Quiet Before The Storm
DYEAR=2001
DGENRE=New Age
TTITLE0=Mind In The Clouds
TTITLE1=Ocean Of Emotion
TTITLE2=Sea of Prosperity
TTITLE3=Reckless Angel
TTITLE4=Dreaming into the Future
EXTD=YEAR: 2001
EXTT0=
EXTT1=
EXTT2=
EXTT3=
EXTT4=
PLAYORDER=
